<?xml version="1.0" encoding="iso-8859-1"?>
<!-- Uploaded to: SVG Repo, www.svgrepo.com, Generator: SVG Repo Mixer Tools -->
<svg height="800px" width="800px" version="1.1" id="Capa_1" xmlns="http://www.w3.org/2000/svg" xmlns:xlink="http://www.w3.org/1999/xlink" 
	 viewBox="0 0 318.246 318.246" xml:space="preserve">
<g>
	<g>
		<path style="fill:#010002;" d="M127.687,138.638c0,0,19.532,21.794,45.139,22.898l-14.979-47.227
			C152.631,124.899,143.586,134.94,127.687,138.638z"/>
		<path style="fill:#010002;" d="M64.039,62.024c-2.393-1.811-5.803-1.338-7.62,1.044L40.173,84.493l-3.274,4.319l-3.302,4.351
			l-5.945,7.843l-13.94,18.389c-1.811,2.393-1.349,5.803,1.05,7.62c0.974,0.751,2.127,1.11,3.274,1.11
			c1.643,0,3.269-0.745,4.34-2.154l12.814-16.899l8.779-11.574l3.867-5.102l4.117-5.428l13.135-17.323
			C66.9,67.251,66.433,63.84,64.039,62.024z"/>
		<path style="fill:#010002;" d="M23.785,75.252L12.037,36.069l-1.469,2.545L0.729,55.682c-1.501,2.605-0.609,5.929,1.996,7.43
			L21.593,73.99L23.785,75.252z"/>
		<path style="fill:#010002;" d="M314.013,286.157c-17.296-7.952-31.971-18.944-43.317-33.385c-1.371-1.746-2.676-3.568-3.949-5.417
			c-0.457-0.664-0.952-1.284-1.392-1.958l8.702-3.715c1.186-0.239,2.203-0.702,3.073-1.311l0.022-0.011h-0.005
			c2.594-1.828,3.699-5.113,2.497-8.893L237.105,97.34c-1.817-5.727,1.583-10.367,7.587-10.367h17.155
			c6.01,0,9.431-4.65,7.642-10.383l-15.284-49.033c-1.784-5.738-8.104-10.389-14.114-10.389h-27.364l11.928,33.505
			c2.012,5.662-1.224,10.247-7.229,10.247h-35.354c-6.01,0-12.51-4.591-14.528-10.247l-11.922-33.505H26.156
			c-6.01,0-9.431,4.65-7.642,10.383l15.284,49.033c0.587,1.887,1.702,3.633,3.1,5.162C42.234,73.984,48,66.549,54.086,59.391
			c8.621-10.133,22.828,4.721,14.256,14.789c-3.541,4.161-6.918,8.425-10.166,12.787h91.534c5.755,0,11.77,4.27,13.864,9.66
			c0.092,0.239,0.223,0.468,0.299,0.713l20.081,63.305l18.585,58.606l-4.281,4.498l-4.281,4.498l-1.692,1.779
			c-4.139,4.351-2.986,9.714,2.584,11.971l7.381,2.991l19.809,8.028l2.959,1.202c5.57,2.257,14.56,2.176,20.086-0.185l2.681-1.148
			l2.339-0.995c0.207,0.337,0.451,0.647,0.658,0.984c13.217,20.951,32.259,36.926,54.983,47.374
			C315.264,304.611,323.564,290.546,314.013,286.157z"/>
		<polygon style="fill:#010002;" points="173.658,47.991 216.214,47.991 208.768,28.046 166.212,28.046 		"/>
	</g>
</g>
</svg>